<?xml version="1.0" encoding="iso-8859-1"?>
<!-- Generator: Adobe Illustrator 21.0.0, SVG Export Plug-In . SVG Version: 6.00 Build 0)  -->
<svg xmlns="http://www.w3.org/2000/svg" xmlns:xlink="http://www.w3.org/1999/xlink" version="1.1" id="Capa_1" x="0px" y="0px" viewBox="0 0 512 512" style="enable-background:new 0 0 512 512;" xml:space="preserve" width="512" height="512">
<g>
	<g>
		<g>
			<g>
				<g>
					<g>
						<g>
							<g>
								<g>
									<g>
										<g>
											<g>
												<circle style="fill:#00EFD1;" cx="256" cy="256" r="256"/>
											</g>
										</g>
									</g>
								</g>
							</g>
						</g>
					</g>
				</g>
			</g>
		</g>
	</g>
	<path style="fill:#00CEB4;" d="M512,256c0-6.956-0.288-13.844-0.832-20.66l-68.984-69.558   c-6.884-7.751-16.921-12.639-28.103-12.639H97.919c-20.762,0-37.592,16.831-37.592,37.592v114.454   c0,10.898,4.642,20.707,12.052,27.572l179.736,179.19c1.294,0.02,2.586,0.049,3.885,0.049C397.385,512,512,397.385,512,256z"/>
	<path style="fill:#6D76E7;" d="M414.081,153.143H97.919c-20.762,0-37.592,16.831-37.592,37.592v114.453   c0,20.762,16.831,37.592,37.592,37.592h116.965L256,394.5l41.116-51.719h116.965c20.762,0,37.592-16.831,37.592-37.592V190.735   C451.673,169.974,434.842,153.143,414.081,153.143z"/>
	<path style="fill:#283EE1;" d="M451.67,190.74v114.45c0,20.76-16.83,37.59-37.59,37.59H297.12L256,394.5V153.14h158.08   C434.84,153.14,451.67,169.97,451.67,190.74z"/>
	<g>
		<path style="fill:#FFFFFF;" d="M228.596,248.763c0-29.954-28.008-54.237-62.557-54.237c-34.549,0-62.557,24.283-62.557,54.237    c0,29.954,28.008,54.237,62.557,54.237c7.864,0,15.382-1.27,22.315-3.566L209.496,303l-3.321-12.643    C219.877,280.408,228.596,265.471,228.596,248.763z"/>
		<g>
			<path style="fill:#FFF5CB;" d="M328.053,248.459c4.233,0.752,7.664,2.783,10.294,6.094c2.627,3.313,3.943,7.359,3.943,12.137     c0,3.21-0.632,6.111-1.895,8.706c-1.264,2.594-3.039,4.797-5.327,6.607c-2.289,1.808-5.07,3.209-8.347,4.199     c-3.278,0.989-6.965,1.485-11.062,1.485c-5.19,0-9.782-0.837-13.776-2.509c-3.995-1.674-7.324-4.115-9.986-7.324l7.784-9.73     c1.775,2.254,3.892,3.995,6.35,5.224c2.458,1.23,5.531,1.844,9.218,1.844c4.165,0,7.34-0.82,9.526-2.458     c2.184-1.639,3.277-4.164,3.277-7.58c0-3.549-1.264-6.281-3.789-8.194c-2.527-1.911-6.351-2.867-11.472-2.867h-2.867V243.85     h3.175c4.233,0,7.51-0.938,9.833-2.817c2.321-1.878,3.483-4.285,3.483-7.221c0-2.799-0.957-4.881-2.868-6.248     c-1.913-1.365-4.404-2.048-7.477-2.048c-3.142,0-5.959,0.717-8.45,2.151c-2.494,1.434-4.525,3.449-6.095,6.043l-8.603-9.628     c1.024-1.57,2.389-2.987,4.097-4.251c1.705-1.263,3.636-2.355,5.786-3.277c2.152-0.922,4.489-1.639,7.017-2.151     c2.525-0.512,5.121-0.768,7.784-0.768c3.483,0,6.658,0.445,9.525,1.331c2.868,0.888,5.343,2.118,7.426,3.688     c2.082,1.571,3.688,3.466,4.815,5.684c1.126,2.22,1.69,4.695,1.69,7.426c0,2.049-0.308,3.995-0.922,5.839     c-0.614,1.843-1.503,3.517-2.663,5.018c-1.162,1.503-2.545,2.766-4.148,3.79C331.723,247.435,329.963,248.117,328.053,248.459z"/>
			<path style="fill:#FFF5CB;" d="M375.885,239.957c3.413,0,6.589,0.564,9.526,1.69c2.935,1.126,5.462,2.714,7.579,4.763     c2.116,2.049,3.772,4.507,4.968,7.374c1.193,2.868,1.792,6.043,1.792,9.526c0,3.687-0.666,7.034-1.998,10.037     c-1.331,3.004-3.193,5.583-5.582,7.733c-2.391,2.151-5.224,3.823-8.502,5.019c-3.277,1.194-6.828,1.792-10.652,1.792     c-5.326,0-10.089-1.126-14.288-3.38c-4.199-2.253-7.392-5.326-9.577-9.218l7.886-8.194c1.911,2.663,4.302,4.781,7.17,6.351     c2.868,1.569,5.839,2.355,8.911,2.355c3.687,0,6.708-1.11,9.064-3.329c2.355-2.218,3.533-5.172,3.533-8.86     c0-3.549-1.11-6.418-3.329-8.603c-2.219-2.185-5.036-3.278-8.45-3.278c-2.253,0-4.353,0.512-6.299,1.536     c-1.945,1.024-3.5,2.425-4.66,4.199h-11.984c0-0.204,0.136-0.973,0.41-2.304c0.272-1.331,0.614-3.037,1.024-5.121     c0.41-2.081,0.854-4.404,1.332-6.964c0.477-2.561,0.989-5.173,1.536-7.836c1.229-6.282,2.594-13.315,4.097-21.099h35.849v12.495     h-25.914l-2.97,16.286c0.82-0.886,2.032-1.604,3.636-2.151C371.599,240.231,373.562,239.957,375.885,239.957z"/>
		</g>
	</g>
</g>















</svg>
