<svg height="512pt" viewBox="0 0 512 512" width="512pt" xmlns="http://www.w3.org/2000/svg" xmlns:xlink="http://www.w3.org/1999/xlink"><linearGradient id="a" gradientUnits="userSpaceOnUse" x1="0" x2="512" y1="256" y2="256"><stop offset="0" stop-color="#00f38d"/><stop offset="1" stop-color="#009eff"/></linearGradient><path d="m512 256c0 141.386719-114.613281 256-256 256s-256-114.613281-256-256 114.613281-256 256-256 256 114.613281 256 256zm0 0" fill="url(#a)"/><g fill="#fff"><path d="m382.945312 104.984375h-253.890624c-22.558594 0-40.910157 18.351563-40.910157 40.910156v165.808594c0 22.554687 18.351563 40.90625 40.910157 40.90625h131.480468v-30h-131.480468c-6.015626 0-10.910157-4.894531-10.910157-10.90625v-153.796875l137.855469 102.539062 137.855469-102.539062v140.839844h30v-152.851563c0-22.558593-18.351563-40.910156-40.910157-40.910156zm-245.351562 30h236.8125l-118.40625 88.070313zm0 0"/><path d="m369.449219 268.203125h-30v54.40625h-54.40625v30h54.40625v54.40625h30v-54.40625h54.40625v-30h-54.40625zm0 0"/></g></svg>