<?xml version="1.0" encoding="iso-8859-1"?>
<!-- Generator: Adobe Illustrator 19.0.0, SVG Export Plug-In . SVG Version: 6.00 Build 0)  -->
<svg version="1.1" id="Layer_1" xmlns="http://www.w3.org/2000/svg" xmlns:xlink="http://www.w3.org/1999/xlink" x="0px" y="0px"
	 viewBox="0 0 512.003 512.003" style="enable-background:new 0 0 512.003 512.003;" xml:space="preserve">
<path style="fill:#E69629;" d="M127.895,50.044c-40.883,0-74.144,33.263-74.144,74.147c0,40.883,33.261,74.141,74.144,74.141
	s74.144-33.259,74.144-74.141C202.04,83.307,168.78,50.044,127.895,50.044z"/>
<path style="fill:#989DE9;" d="M225.715,293.263c-24.374-28.918-60.029-45.501-97.819-45.501C57.373,247.762,0,305.136,0,375.657
	c0,13.649,11.066,24.715,24.715,24.715h93.804c13.649,0,24.715-11.066,24.715-24.715c0-5.581-1.872-10.71-4.991-14.847l48.772-36.71
	c0.302,0.343,0.615,0.671,0.91,1.02c8.797,10.436,24.39,11.766,34.825,2.969C233.183,319.291,234.513,303.699,225.715,293.263z"/>
<path style="fill:#E69629;" d="M384.105,50.044c-40.885,0-74.144,33.263-74.144,74.147c0,40.883,33.259,74.141,74.144,74.141
	s74.144-33.259,74.144-74.141C458.249,83.307,424.988,50.044,384.105,50.044z"/>
<path style="fill:#989DE9;" d="M384.105,247.762c-37.792,0-73.444,16.585-97.816,45.5c-8.798,10.436-7.469,26.028,2.969,34.826
	c10.436,8.797,26.028,7.467,34.825-2.969c0.295-0.349,0.608-0.676,0.908-1.02l48.764,36.71c-3.121,4.137-4.991,9.268-4.991,14.849
	c0,13.649,11.066,24.715,24.715,24.715h93.81c13.649,0,24.715-11.066,24.715-24.715C512,305.136,454.627,247.762,384.105,247.762z"
	/>
<path style="fill:#F2D23D;" d="M256,20.802c-57.01,0-103.39,46.38-103.39,103.39c0,57.009,46.38,103.388,103.39,103.388
	s103.39-46.38,103.39-103.388C359.39,67.181,313.01,20.802,256,20.802z"/>
<path style="fill:#D6E5F6;" d="M256,277.009c-104.479,0-189.48,84.999-189.48,189.478c0,13.649,11.066,24.715,24.715,24.715h329.53
	c13.649,0,24.715-11.066,24.715-24.715C445.479,362.008,360.479,277.009,256,277.009z"/>
<path style="fill:#A7C7FC;" d="M256,277.009v214.193h164.765c13.649,0,24.715-11.066,24.715-24.715
	C445.479,362.008,360.479,277.009,256,277.009z"/>
<g>
</g>
<g>
</g>
<g>
</g>
<g>
</g>
<g>
</g>
<g>
</g>
<g>
</g>
<g>
</g>
<g>
</g>
<g>
</g>
<g>
</g>
<g>
</g>
<g>
</g>
<g>
</g>
<g>
</g>
</svg>
